<?xml version="1.0" encoding="iso-8859-1"?>
<!-- Uploaded to: SVG Repo, www.svgrepo.com, Generator: SVG Repo Mixer Tools -->
<!DOCTYPE svg PUBLIC "-//W3C//DTD SVG 1.1//EN" "http://www.w3.org/Graphics/SVG/1.1/DTD/svg11.dtd">
<svg fill="#000000" height="800px" width="800px" version="1.1" id="Capa_1" xmlns="http://www.w3.org/2000/svg" xmlns:xlink="http://www.w3.org/1999/xlink" 
	 viewBox="0 0 474.373 474.373" xml:space="preserve">
<g id="XMLID_60_">
	<path id="XMLID_75_" d="M387.327,175.296l-12.519-41.061c-2.895-9.506-10.372-16.569-19.534-19.344
		c-7.201-2.189-14.218-1.807-21.342,1.717c-10.925,5.393-16.409,15.827-16.135,26.874c0.016,0.053,0.047,0.107,0.06,0.168
		l19.936,64.749h15.551c-2.023-4.91-20.608-49.137-21.787-54.3c1.623,4.711,26.964,49.918,29.385,54.3h9.271
		c15.627,0,28.344,12.7,28.344,28.321c0,1.471-0.444,2.812-0.659,4.221h40.157c9.362,0,16.946-7.584,16.946-16.945
		c0-9.362-7.584-16.946-16.946-16.946H398.91c-2.543-4.602-35.821-65.683-39.315-69.589
		C362.98,140.47,384.43,171.221,387.327,175.296z"/>
	<path id="XMLID_74_" d="M319.376,99.631c6.159,3.93,13.422,6.282,21.267,6.282c21.878,0,39.621-17.735,39.621-39.614
		c0-21.894-17.743-39.621-39.621-39.621c-13.114,0-24.637,6.435-31.854,16.24c9.27,9.239,15.03,22.009,15.03,36.105
		C323.819,86.37,322.195,93.319,319.376,99.631z"/>
	<path id="XMLID_73_" d="M454.021,250.784c-70.279,0,51.097,0-59.509,0c-0.414,0.698-0.627,1.518-1.087,2.176
		c16.394,3.809,27.839,20.247,23.318,38.487h6.649l-28.774,68.357c-4.351,10.349,0.507,22.269,10.848,26.627
		c10.297,4.353,22.247-0.466,26.629-10.847l40.663-96.578C478.397,265.646,468.576,250.784,454.021,250.784z"/>
	<path id="XMLID_72_" d="M251.15,112.14c6.236,4.084,13.651,6.497,21.665,6.497c21.879,0,39.62-17.743,39.62-39.613
		c0-21.894-17.741-39.621-39.62-39.621c-14.127,0-26.43,7.43-33.448,18.546c9.378,9.247,15.214,22.071,15.214,36.251
		C254.581,100.536,253.279,106.541,251.15,112.14z"/>
	<path id="XMLID_71_" d="M370.213,253.665c9.359,0,16.943-7.584,16.943-16.945c0-9.361-7.584-16.945-16.943-16.945h-39.133
		c-2.559-4.643-35.82-65.676-39.36-69.62c3.448,3.064,24.852,33.775,27.777,37.898l-12.517-41.092
		c-2.896-9.508-10.372-16.57-19.534-19.344c-7.201-2.191-14.22-1.809-21.344,1.715c-16.517,8.159-17.236,22.285-14.831,38.128
		l17.283,56.123h17.972c-2.022-4.911-21.634-51.595-22.814-56.759c1.624,4.712,28.328,52.377,30.749,56.759h6.513
		c15.628,0,28.344,12.7,28.344,28.313c0,0.621-0.228,1.166-0.275,1.771H370.213z"/>
	<path id="XMLID_70_" d="M386.192,263.501c-52.016,0,41.017,0-59.692,0c-0.72,1.579-1.332,3.227-2.313,4.635
		c16.011,3.716,26.782,19.298,24.008,36.029h7.37l-28.789,68.355c-4.351,10.35,0.491,22.271,10.848,26.629
		c10.297,4.352,22.247-0.468,26.629-10.848l40.679-96.578C410.554,278.417,400.81,263.501,386.192,263.501z"/>
	<path id="XMLID_69_" d="M178.711,124.819c6.818,5.54,15.383,8.994,24.867,8.994c21.878,0,39.621-17.734,39.621-39.613
		c0-21.895-17.743-39.621-39.621-39.621c-14.862,0-27.64,8.257-34.429,20.34c7.754,8.947,12.609,20.461,12.609,33.193
		C181.758,113.995,180.565,119.556,178.711,124.819z"/>
	<path id="XMLID_68_" d="M300.975,268.84c9.361,0,16.945-7.584,16.945-16.946c0-9.36-7.584-16.944-16.945-16.944H261.83
		c-2.514-4.551-35.837-65.736-39.331-69.598c3.385,2.994,24.883,33.814,27.764,37.858l-12.519-41.062
		c-2.911-9.514-10.388-16.576-19.58-19.343c-7.079-2.145-14.036-1.847-21.267,1.709c-12.166,5.997-17.85,18.516-16.027,30.559
		l4.276,28.007l10.587,34.413h21.02c-2.021-4.911-21.097-50.331-22.276-55.494c1.624,4.711,27.624,51.112,30.044,55.494h3.633
		c15.612,0,28.328,12.7,28.328,28.313c0,1.057-0.352,2.007-0.475,3.033H300.975z"/>
	<path id="XMLID_67_" d="M316.955,278.685c-45.29,0,50.577,0-63.937,0c-0.566,1.11-0.949,2.344-1.669,3.362
		c16.056,3.73,27.334,19.566,23.671,37.301h11.308l-28.79,68.355c-4.35,10.351,0.492,22.27,10.848,26.629
		c10.298,4.352,22.248-0.467,26.63-10.848l40.679-96.578C341.331,293.546,331.511,278.685,316.955,278.685z"/>
	<path id="XMLID_66_" d="M105.949,138.786c6.803,5.506,15.351,8.939,24.806,8.939c21.879,0,39.621-17.735,39.621-39.613
		c0-21.887-17.742-39.622-39.621-39.622c-16.18,0-29.999,9.699-36.174,23.565c8.12,9.03,13.207,20.845,13.207,33.913
		C107.788,130.42,107.036,134.664,105.949,138.786z"/>
	<path id="XMLID_65_" d="M153.875,255.342h0.306c15.322,0,27.764,12.219,28.253,27.409h45.72c9.361,0,16.945-7.584,16.945-16.944
		c0-9.361-7.584-16.945-16.945-16.945h-39.146c-2.545-4.613-35.808-65.645-39.315-69.575c3.417,3.034,24.82,33.746,27.748,37.844
		l-12.52-41.069c-2.896-9.514-10.403-16.577-19.58-19.344c-7.078-2.145-14.035-1.845-21.266,1.709
		c-12.137,5.992-17.85,18.493-16.027,30.559l6.588,43.206l7.125,23.15h23.794c-2.022-4.91-22.721-54.261-23.901-59.424
		C123.277,200.631,151.454,250.961,153.875,255.342z"/>
	<path id="XMLID_64_" d="M244.131,292.596c-52.291,0,43.775,0-63.094,0c-0.872,2.621-2.083,5.087-3.645,7.309
		c14.495,3.37,25.511,16.715,24.192,33.355h11.921l-28.79,68.355c-4.35,10.35,0.492,22.27,10.848,26.629
		c10.297,4.351,22.247-0.467,26.63-10.848l40.678-96.578C268.508,307.458,258.688,292.596,244.131,292.596z"/>
	<path id="XMLID_63_" d="M56.782,165.583c21.881,0,39.621-17.735,39.621-39.614c0-21.894-17.74-39.62-39.621-39.62
		c-21.894,0-39.621,17.727-39.621,39.62C17.161,147.847,34.888,165.583,56.782,165.583z"/>
	<path id="XMLID_62_" d="M105.504,362.462c-1.961-1.103-4.105-1.899-6.511-1.899c-53.365,0-1.288,0-53.304,0L26.966,237.094
		c-1.133-7.408-7.982-12.51-15.442-11.367c-7.4,1.118-12.487,8.027-11.37,15.429l20.47,134.988
		c1.012,6.626,6.712,11.521,13.406,11.521h64.964c7.491,0,13.559-6.066,13.559-13.55
		C112.552,369.034,109.642,364.784,105.504,362.462z"/>
	<path id="XMLID_61_" d="M170.161,310.454c-57.425,0,55.954,0-70.034,0c-8.473-0.813-15.657-6.105-18.783-13.674
		c-2.023-4.911-32.482-77.849-33.663-83.012c1.626,4.711,40.129,73.711,42.55,78.093c2.987,5.4,8.671,8.748,14.831,8.748h49.119
		c9.361,0,16.945-7.584,16.945-16.945c0-9.36-7.584-16.944-16.945-16.944h-39.131c-2.527-4.567-35.866-65.754-39.36-69.621
		c3.386,2.987,24.913,33.861,27.793,37.897L90.95,193.897c-2.897-9.5-10.373-16.564-19.536-19.338
		c-7.108-2.16-14.095-1.845-21.342,1.717c-12.12,6.006-17.819,18.532-15.98,30.544l18.202,119.438
		c2.176,14.278,14.448,24.828,28.896,24.828c156.891,0-98.548,0.032,58.343,0.032l-28.788,68.348
		c-4.352,10.35,0.489,22.27,10.848,26.629c10.295,4.351,22.247-0.468,26.627-10.848l40.68-96.57
		C194.538,325.315,184.715,310.454,170.161,310.454z"/>
</g>
</svg>